<svg width="512" height="512" viewBox="0 0 512 512" fill="none" xmlns="http://www.w3.org/2000/svg">
  <rect width="512" height="512" rx="132" fill="#EAF1EE"/>
  <circle cx="404" cy="112" r="64" fill="#DCE7E4"/>
  <rect x="116" y="112" width="224" height="292" rx="34" fill="#FFFCF7" stroke="#2E5A58" stroke-width="14"/>
  <path d="M284 112V168C284 184.569 297.431 198 314 198H340" fill="#FFFCF7"/>
  <path d="M284 112V168C284 184.569 297.431 198 314 198H340" stroke="#2E5A58" stroke-width="14" stroke-linecap="round" stroke-linejoin="round"/>
  <rect x="156" y="186" width="142" height="16" rx="8" fill="#7A9491"/>
  <rect x="156" y="224" width="142" height="16" rx="8" fill="#7A9491"/>
  <rect x="156" y="262" width="104" height="16" rx="8" fill="#7A9491"/>
  <rect x="148" y="132" width="224" height="292" rx="34" fill="url(#shadowCard)" opacity="0.22"/>
  <circle cx="344" cy="326" r="62" fill="#F5E4BE" stroke="#2E5A58" stroke-width="14"/>
  <path d="M344 296V328L364 344" stroke="#2E5A58" stroke-width="14" stroke-linecap="round" stroke-linejoin="round"/>
  <circle cx="344" cy="326" r="8" fill="#2E5A58"/>
  <defs>
    <linearGradient id="shadowCard" x1="148" y1="132" x2="372" y2="424" gradientUnits="userSpaceOnUse">
      <stop stop-color="#9FB6B1"/>
      <stop offset="1" stop-color="#EAF1EE"/>
    </linearGradient>
  </defs>
</svg>
