<svg width="1024" height="500" viewBox="0 0 1024 500" fill="none" xmlns="http://www.w3.org/2000/svg">
  <rect width="1024" height="500" rx="40" fill="#F5F2EB"/>
  <circle cx="170" cy="112" r="78" fill="#E7EEE8"/>
  <circle cx="930" cy="404" r="72" fill="#E5ECE6"/>
  <circle cx="862" cy="96" r="34" fill="#ECE4D4"/>

  <rect x="118" y="92" width="236" height="302" rx="36" fill="#FFFDF8" stroke="#2E5A58" stroke-width="14"/>
  <path d="M282 92V150C282 165.464 294.536 178 310 178H354" fill="#FFFDF8"/>
  <path d="M282 92V150C282 165.464 294.536 178 310 178H354" stroke="#2E5A58" stroke-width="14" stroke-linecap="round" stroke-linejoin="round"/>
  <rect x="156" y="188" width="154" height="16" rx="8" fill="#7A9491"/>
  <rect x="156" y="228" width="130" height="16" rx="8" fill="#7A9491"/>
  <rect x="156" y="268" width="102" height="16" rx="8" fill="#7A9491"/>

  <circle cx="352" cy="320" r="58" fill="#F1E1BC" stroke="#2E5A58" stroke-width="14"/>
  <path d="M352 294V322L370 336" stroke="#2E5A58" stroke-width="14" stroke-linecap="round" stroke-linejoin="round"/>
  <circle cx="352" cy="320" r="8" fill="#2E5A58"/>

  <rect x="430" y="102" width="232" height="42" rx="21" fill="#E4ECE7"/>
  <text x="456" y="129" fill="#315D59" font-family="Noto Sans KR, Apple SD Gothic Neo, Malgun Gothic, sans-serif" font-size="18" font-weight="700">담아알림 - 문서 리마인더</text>

  <text x="430" y="222" fill="#1E4441" font-family="Noto Sans KR, Apple SD Gothic Neo, Malgun Gothic, sans-serif" font-size="70" font-weight="700">담아알림</text>
  <text x="430" y="276" fill="#52726D" font-family="Noto Sans KR, Apple SD Gothic Neo, Malgun Gothic, sans-serif" font-size="28" font-weight="500">문서를 담아두고, 필요한 날 다시 확인하세요</text>

  <rect x="430" y="316" width="116" height="40" rx="20" fill="#DCE7E4"/>
  <text x="459" y="342" fill="#224845" font-family="Noto Sans KR, Apple SD Gothic Neo, Malgun Gothic, sans-serif" font-size="18" font-weight="700">로컬 저장</text>

  <rect x="558" y="316" width="118" height="40" rx="20" fill="#EFE4CB"/>
  <text x="586" y="342" fill="#224845" font-family="Noto Sans KR, Apple SD Gothic Neo, Malgun Gothic, sans-serif" font-size="18" font-weight="700">차분한 확인</text>

  <rect x="700" y="142" width="206" height="232" rx="28" fill="#FFFDF8" stroke="#DAD2C6" stroke-width="4"/>
  <rect x="724" y="170" width="158" height="20" rx="10" fill="#DCE7E4"/>
  <rect x="724" y="208" width="112" height="14" rx="7" fill="#D7DDD6"/>
  <rect x="724" y="242" width="158" height="96" rx="18" fill="#F4F0E6"/>
  <circle cx="772" cy="290" r="24" fill="#E6EDE7"/>
  <rect x="806" y="276" width="52" height="12" rx="6" fill="#7A9491"/>
  <rect x="806" y="296" width="44" height="12" rx="6" fill="#7A9491"/>
  <circle cx="748" cy="362" r="6" fill="#86A19D"/>
  <circle cx="772" cy="362" r="6" fill="#86A19D"/>
  <circle cx="796" cy="362" r="6" fill="#86A19D"/>
  <rect x="820" y="348" width="62" height="28" rx="14" fill="#F1E1BC"/>
  <text x="834" y="367" fill="#224845" font-family="Noto Sans KR, Apple SD Gothic Neo, Malgun Gothic, sans-serif" font-size="14" font-weight="700">알림</text>
</svg>
